<svg width="22" height="21" viewBox="0 0 22 21" fill="none" xmlns="http://www.w3.org/2000/svg">
<path d="M21.9313 8.93645C21.8429 8.56135 21.5973 8.21438 21.3174 8.06903C21.229 8.02214 20.679 7.96587 20.0897 7.94243C19.1025 7.90023 18.9945 7.88147 18.6802 7.70799C18.1842 7.43135 18.0516 7.13127 18.0467 6.3248C18.0418 4.7775 17.3689 3.33804 16.0381 2.04393C15.0902 1.12024 14.0294 0.496634 12.8213 0.144975C12.5316 0.0605767 11.8833 0.0324439 9.71266 0.00899999C6.30441 -0.0285103 5.54811 0.0371327 4.38911 0.477879C2.25281 1.28435 0.720574 3.00045 0.160717 5.1948C0.0575858 5.60741 0.0330307 6.26853 0.00847554 10.0665C-0.0209906 14.8256 0.0133865 15.5242 0.322781 16.4666C1.0889 18.7923 3.26448 20.5131 5.44989 20.8882C6.17672 21.0148 15.1393 21.0429 16.0577 20.9257C17.6538 20.7194 18.9061 20.1051 20.0798 18.9611C20.9294 18.1312 21.4598 17.2356 21.8085 16.0493C22.0492 15.2241 22.0295 9.35375 21.9313 8.93645ZM6.11288 5.95438C6.49594 5.58397 6.60398 5.5699 9.00056 5.5699C11.1565 5.5699 11.2302 5.57459 11.5445 5.72932C12.0012 5.94969 12.2025 6.25915 12.2025 6.75617C12.2025 7.2016 12.0159 7.51575 11.5985 7.76894C11.3726 7.90492 11.24 7.9143 9.12825 7.92367C7.82682 7.93305 6.78569 7.90492 6.63345 7.86741C5.81822 7.64703 5.51373 6.5311 6.11288 5.95438ZM15.5322 15.3226L14.8005 15.4351L10.9944 15.4773C7.65003 15.5148 6.70711 15.4586 6.53031 15.3835C6.18163 15.2382 5.85259 14.8349 5.79857 14.4739C5.74455 14.1316 5.92626 13.6627 6.20128 13.4236C6.54996 13.1235 6.7022 13.1142 10.9797 13.1095C15.38 13.1048 15.3554 13.1048 15.7729 13.4752C16.3671 14.005 16.2394 14.9381 15.5322 15.3226Z" fill="#DDA15E"/>
</svg>
