<svg width="22" height="21" viewBox="0 0 22 21" fill="none" xmlns="http://www.w3.org/2000/svg">
<path d="M11.0025 5.11587C7.88098 5.11587 5.36319 7.51975 5.36319 10.5C5.36319 13.4803 7.88098 15.8841 11.0025 15.8841C14.1239 15.8841 16.6417 13.4803 16.6417 10.5C16.6417 7.51975 14.1239 5.11587 11.0025 5.11587ZM11.0025 14.0004C8.98528 14.0004 7.3362 12.4306 7.3362 10.5C7.3362 8.5694 8.98037 6.99961 11.0025 6.99961C13.0245 6.99961 14.6687 8.5694 14.6687 10.5C14.6687 12.4306 13.0196 14.0004 11.0025 14.0004ZM18.1877 4.89563C18.1877 5.59383 17.5988 6.15146 16.8724 6.15146C16.1411 6.15146 15.5571 5.58914 15.5571 4.89563C15.5571 4.20211 16.146 3.6398 16.8724 3.6398C17.5988 3.6398 18.1877 4.20211 18.1877 4.89563ZM21.9227 6.1702C21.8393 4.48795 21.4368 2.99782 20.146 1.77011C18.8601 0.542396 17.2994 0.15815 15.5374 0.0738034C13.7215 -0.0246011 8.27853 -0.0246011 6.46258 0.0738034C4.70552 0.153464 3.14479 0.537711 1.85399 1.76542C0.56319 2.99314 0.165644 4.48326 0.0773006 6.16551C-0.0257669 7.89931 -0.0257669 13.096 0.0773006 14.8298C0.160736 16.512 0.56319 18.0022 1.85399 19.2299C3.14479 20.4576 4.70061 20.8419 6.46258 20.9262C8.27853 21.0246 13.7215 21.0246 15.5374 20.9262C17.2994 20.8465 18.8601 20.4623 20.146 19.2299C21.4319 18.0022 21.8344 16.512 21.9227 14.8298C22.0258 13.096 22.0258 7.90399 21.9227 6.1702ZM19.5767 16.6901C19.1939 17.6086 18.4528 18.3161 17.4859 18.6863C16.038 19.2346 12.6025 19.1081 11.0025 19.1081C9.40245 19.1081 5.96196 19.2299 4.51902 18.6863C3.55705 18.3208 2.81595 17.6132 2.42822 16.6901C1.85399 15.3078 1.9865 12.0276 1.9865 10.5C1.9865 8.97239 1.8589 5.68755 2.42822 4.30989C2.81104 3.39144 3.55215 2.68387 4.51902 2.31368C5.96687 1.76542 9.40245 1.89194 11.0025 1.89194C12.6025 1.89194 16.0429 1.77011 17.4859 2.31368C18.4479 2.67918 19.189 3.38676 19.5767 4.30989C20.1509 5.69223 20.0184 8.97239 20.0184 10.5C20.0184 12.0276 20.1509 15.3125 19.5767 16.6901Z" fill="#DDA15E"/>
</svg>
