<svg width="21" height="26" viewBox="0 0 21 26" fill="none" xmlns="http://www.w3.org/2000/svg">
<path d="M3.51223 8.15197C3.04542 7.15089 3.47853 5.96093 4.47961 5.49412L13.0109 1.51594C14.1135 1.00174 15.3876 1.00391 16.4886 1.52184V1.52184C16.8467 1.69033 17.0334 2.09062 16.9322 2.47328V2.47328C16.6213 3.64956 15.804 4.62698 14.7013 5.14117L6.17008 9.11935C5.169 9.58616 3.97904 9.15305 3.51223 8.15197V8.15197Z" fill="#DDA15E"/>
<path d="M3.51219 17.1459C3.979 16.1448 5.16896 15.7117 6.17004 16.1785L14.7013 20.1567C15.804 20.6709 16.6213 21.6483 16.9322 22.8246V22.8246C17.0333 23.2072 16.8467 23.6075 16.4885 23.776V23.776C15.3876 24.2939 14.1135 24.2961 13.0108 23.7819L4.47956 19.8037C3.47848 19.3369 3.04537 18.1469 3.51219 17.1459V17.1459Z" fill="#DDA15E"/>
<path d="M6 13.3335C6 12.2289 6.89543 11.3335 8 11.3335H17.4132C18.6299 11.3335 19.7837 11.8739 20.5626 12.8086V12.8086C20.816 13.1127 20.816 13.5543 20.5626 13.8584V13.8584C19.7837 14.7931 18.6299 15.3335 17.4132 15.3335H8C6.89543 15.3335 6 14.4381 6 13.3335V13.3335Z" fill="#DDA15E"/>
<circle cx="2.33333" cy="12.9998" r="2.33333" fill="#DDA15E"/>
</svg>
