<svg width="22" height="22" viewBox="0 0 22 22" fill="none" xmlns="http://www.w3.org/2000/svg">
<path d="M7.01818 6.94453C5.70657 8.05901 5.22592 10.0915 6.35845 11.7221C7.41826 13.248 8.75325 14.5827 10.2788 15.642C11.9094 16.7743 13.9418 16.2935 15.0562 14.9819L15.0686 14.9876C16.492 15.647 18.0038 16.0989 19.5556 16.3292V19.5555L19.5542 19.5555L19.5508 19.5555C9.80407 19.5694 2.43403 12.1136 2.44446 2.44883V2.44444H5.67034L5.67055 2.44587C5.90088 3.99746 6.35263 5.50799 7.01205 6.93132L7.01818 6.94453ZM19.5542 22H20.7778C21.4528 22 22 21.4528 22 20.7778V15.275C22 14.6693 21.5564 14.1549 20.9572 14.066L19.9132 13.9111C18.5928 13.7151 17.3073 13.3307 16.0961 12.7696L15.1759 12.3433C14.6427 12.0963 14.0092 12.2638 13.6676 12.742L13.251 13.3252C12.886 13.8363 12.1889 13.9924 11.673 13.6342C10.3869 12.7411 9.25964 11.6141 8.36614 10.3276C8.00777 9.81168 8.1639 9.11457 8.67513 8.74948L9.25805 8.33319C9.73633 7.99164 9.9038 7.35803 9.65674 6.82477L9.23002 5.90374C8.66891 4.6926 8.2845 3.40724 8.0885 2.08693L7.93349 1.04275C7.84455 0.443617 7.33022 0 6.72452 0H1.22223C0.54722 0 1.24987e-05 0.547207 1.24987e-05 1.22222V2.44619C-0.011867 13.4541 8.44584 22.0157 19.5542 22Z" fill="#F4F4F4"/>
</svg>
