<svg width="23" height="21" viewBox="0 0 23 21" fill="none" xmlns="http://www.w3.org/2000/svg">
<path d="M20.6358 5.23357C20.6504 5.46325 20.6504 5.69298 20.6504 5.92265C20.6504 12.9281 15.9074 21 7.2386 21C4.5679 21 2.08694 20.1304 0 18.6211C0.379457 18.6703 0.744269 18.6867 1.13832 18.6867C3.34198 18.6867 5.37057 17.85 6.9905 16.4227C4.91816 16.3734 3.18147 14.8477 2.58311 12.7477C2.87501 12.7968 3.16687 12.8297 3.47337 12.8297C3.89658 12.8297 4.31984 12.764 4.71385 12.6492C2.55395 12.157 0.933974 10.0242 0.933974 7.44843V7.38283C1.56149 7.77658 2.29125 8.02267 3.06467 8.05544C1.795 7.10386 0.963174 5.47966 0.963174 3.64215C0.963174 2.65779 1.19663 1.75545 1.60529 0.967944C3.92574 4.18357 7.41371 6.28353 11.3248 6.51326C11.2519 6.11951 11.2081 5.70939 11.2081 5.29923C11.2081 2.37888 13.3096 0 15.9219 0C17.2792 0 18.5051 0.639842 19.3661 1.67344C20.4314 1.44376 21.453 1.00077 22.3579 0.393753C22.0076 1.62425 21.2633 2.65784 20.2855 3.31405C21.2342 3.19926 22.1536 2.90388 23 2.49377C22.358 3.54373 21.5553 4.47884 20.6358 5.23357Z" fill="#DDA15E"/>
</svg>
