<svg width="20" height="17" viewBox="0 0 20 17" fill="none" xmlns="http://www.w3.org/2000/svg">
<path d="M19.5821 2.65992C19.3521 1.61292 18.6744 0.788331 17.8139 0.508495C16.2542 0 10 0 10 0C10 0 3.74586 0 2.18613 0.508495C1.32565 0.788375 0.647936 1.61292 0.417919 2.65992C0 4.55768 0 8.51718 0 8.51718C0 8.51718 0 12.4767 0.417919 14.3744C0.647936 15.4214 1.32565 16.2117 2.18613 16.4915C3.74586 17 10 17 10 17C10 17 16.2541 17 17.8139 16.4915C18.6744 16.2117 19.3521 15.4214 19.5821 14.3744C20 12.4767 20 8.51718 20 8.51718C20 8.51718 20 4.55768 19.5821 2.65992ZM7.95453 12.1121V4.92225L13.1818 8.51727L7.95453 12.1121Z" fill="#DDA15E"/>
</svg>
